<svg width="800" height="50" xmlns="http://www.w3.org/2000/svg">
 <g>
  <title>Base16 Atelier Lakeside</title>
  <line id="base00" x1="025" y1="0" x2="025" y2="720" stroke-width="50" stroke="#161b1d" />
  <line id="base01" x1="075" y1="0" x2="075" y2="720" stroke-width="50" stroke="#1f292e" />
  <line id="base02" x1="125" y1="0" x2="125" y2="720" stroke-width="50" stroke="#516d7b" />
  <line id="base03" x1="175" y1="0" x2="175" y2="720" stroke-width="50" stroke="#5a7b8c" />
  <line id="base04" x1="225" y1="0" x2="225" y2="720" stroke-width="50" stroke="#7195a8" />
  <line id="base05" x1="275" y1="0" x2="275" y2="720" stroke-width="50" stroke="#7ea2b4" />
  <line id="base06" x1="325" y1="0" x2="325" y2="720" stroke-width="50" stroke="#c1e4f6" />
  <line id="base07" x1="375" y1="0" x2="375" y2="720" stroke-width="50" stroke="#ebf8ff" />
  <line id="base08" x1="425" y1="0" x2="425" y2="720" stroke-width="50" stroke="#d22d72" />
  <line id="base09" x1="475" y1="0" x2="475" y2="720" stroke-width="50" stroke="#935c25" />
  <line id="base0A" x1="525" y1="0" x2="525" y2="720" stroke-width="50" stroke="#8a8a0f" />
  <line id="base0B" x1="575" y1="0" x2="575" y2="720" stroke-width="50" stroke="#568c3b" />
  <line id="base0C" x1="625" y1="0" x2="625" y2="720" stroke-width="50" stroke="#2d8f6f" />
  <line id="base0D" x1="675" y1="0" x2="675" y2="720" stroke-width="50" stroke="#257fad" />
  <line id="base0E" x1="725" y1="0" x2="725" y2="720" stroke-width="50" stroke="#5d5db1" />
  <line id="base0F" x1="775" y1="0" x2="775" y2="720" stroke-width="50" stroke="#b72dd2" />
 </g>
</svg>