<svg width="800" height="50" xmlns="http://www.w3.org/2000/svg">
 <g>
  <title>Base16 Ocean</title>
  <line id="base00" x1="025" y1="0" x2="025" y2="720" stroke-width="50" stroke="#2b303b" />
  <line id="base01" x1="075" y1="0" x2="075" y2="720" stroke-width="50" stroke="#343d46" />
  <line id="base02" x1="125" y1="0" x2="125" y2="720" stroke-width="50" stroke="#4f5b66" />
  <line id="base03" x1="175" y1="0" x2="175" y2="720" stroke-width="50" stroke="#65737e" />
  <line id="base04" x1="225" y1="0" x2="225" y2="720" stroke-width="50" stroke="#a7adba" />
  <line id="base05" x1="275" y1="0" x2="275" y2="720" stroke-width="50" stroke="#c0c5ce" />
  <line id="base06" x1="325" y1="0" x2="325" y2="720" stroke-width="50" stroke="#dfe1e8" />
  <line id="base07" x1="375" y1="0" x2="375" y2="720" stroke-width="50" stroke="#eff1f5" />
  <line id="base08" x1="425" y1="0" x2="425" y2="720" stroke-width="50" stroke="#bf616a" />
  <line id="base09" x1="475" y1="0" x2="475" y2="720" stroke-width="50" stroke="#d08770" />
  <line id="base0A" x1="525" y1="0" x2="525" y2="720" stroke-width="50" stroke="#ebcb8b" />
  <line id="base0B" x1="575" y1="0" x2="575" y2="720" stroke-width="50" stroke="#a3be8c" />
  <line id="base0C" x1="625" y1="0" x2="625" y2="720" stroke-width="50" stroke="#96b5b4" />
  <line id="base0D" x1="675" y1="0" x2="675" y2="720" stroke-width="50" stroke="#8fa1b3" />
  <line id="base0E" x1="725" y1="0" x2="725" y2="720" stroke-width="50" stroke="#b48ead" />
  <line id="base0F" x1="775" y1="0" x2="775" y2="720" stroke-width="50" stroke="#ab7967" />
 </g>
</svg>