<svg width="800" height="50" xmlns="http://www.w3.org/2000/svg">
 <g>
  <title>Base16 Atelier Estuary</title>
  <line id="base00" x1="025" y1="0" x2="025" y2="720" stroke-width="50" stroke="#22221b" />
  <line id="base01" x1="075" y1="0" x2="075" y2="720" stroke-width="50" stroke="#302f27" />
  <line id="base02" x1="125" y1="0" x2="125" y2="720" stroke-width="50" stroke="#5f5e4e" />
  <line id="base03" x1="175" y1="0" x2="175" y2="720" stroke-width="50" stroke="#6c6b5a" />
  <line id="base04" x1="225" y1="0" x2="225" y2="720" stroke-width="50" stroke="#878573" />
  <line id="base05" x1="275" y1="0" x2="275" y2="720" stroke-width="50" stroke="#929181" />
  <line id="base06" x1="325" y1="0" x2="325" y2="720" stroke-width="50" stroke="#e7e6df" />
  <line id="base07" x1="375" y1="0" x2="375" y2="720" stroke-width="50" stroke="#f4f3ec" />
  <line id="base08" x1="425" y1="0" x2="425" y2="720" stroke-width="50" stroke="#ba6236" />
  <line id="base09" x1="475" y1="0" x2="475" y2="720" stroke-width="50" stroke="#ae7313" />
  <line id="base0A" x1="525" y1="0" x2="525" y2="720" stroke-width="50" stroke="#a5980d" />
  <line id="base0B" x1="575" y1="0" x2="575" y2="720" stroke-width="50" stroke="#7d9726" />
  <line id="base0C" x1="625" y1="0" x2="625" y2="720" stroke-width="50" stroke="#5b9d48" />
  <line id="base0D" x1="675" y1="0" x2="675" y2="720" stroke-width="50" stroke="#36a166" />
  <line id="base0E" x1="725" y1="0" x2="725" y2="720" stroke-width="50" stroke="#5f9182" />
  <line id="base0F" x1="775" y1="0" x2="775" y2="720" stroke-width="50" stroke="#9d6c7c" />
 </g>
</svg>