<svg width="800" height="50" xmlns="http://www.w3.org/2000/svg">
 <g>
  <title>Base16 Google</title>
  <line id="base00" x1="025" y1="0" x2="025" y2="720" stroke-width="50" stroke="#1d1f21" />
  <line id="base01" x1="075" y1="0" x2="075" y2="720" stroke-width="50" stroke="#282a2e" />
  <line id="base02" x1="125" y1="0" x2="125" y2="720" stroke-width="50" stroke="#373b41" />
  <line id="base03" x1="175" y1="0" x2="175" y2="720" stroke-width="50" stroke="#969896" />
  <line id="base04" x1="225" y1="0" x2="225" y2="720" stroke-width="50" stroke="#b4b7b4" />
  <line id="base05" x1="275" y1="0" x2="275" y2="720" stroke-width="50" stroke="#c5c8c6" />
  <line id="base06" x1="325" y1="0" x2="325" y2="720" stroke-width="50" stroke="#e0e0e0" />
  <line id="base07" x1="375" y1="0" x2="375" y2="720" stroke-width="50" stroke="#ffffff" />
  <line id="base08" x1="425" y1="0" x2="425" y2="720" stroke-width="50" stroke="#CC342B" />
  <line id="base09" x1="475" y1="0" x2="475" y2="720" stroke-width="50" stroke="#F96A38" />
  <line id="base0A" x1="525" y1="0" x2="525" y2="720" stroke-width="50" stroke="#FBA922" />
  <line id="base0B" x1="575" y1="0" x2="575" y2="720" stroke-width="50" stroke="#198844" />
  <line id="base0C" x1="625" y1="0" x2="625" y2="720" stroke-width="50" stroke="#3971ED" />
  <line id="base0D" x1="675" y1="0" x2="675" y2="720" stroke-width="50" stroke="#3971ED" />
  <line id="base0E" x1="725" y1="0" x2="725" y2="720" stroke-width="50" stroke="#A36AC7" />
  <line id="base0F" x1="775" y1="0" x2="775" y2="720" stroke-width="50" stroke="#3971ED" />
 </g>
</svg>